<svg width="655" height="314" viewBox="0 0 655 314" fill="none" xmlns="http://www.w3.org/2000/svg">
<rect x="0.393982" width="654.317" height="313.062" fill="white"/>
<path d="M69.7023 87.5164H585.403V196.178H69.7023V87.5164Z" fill="url(#paint0_linear_1_19)"/>
<path d="M446.495 160.349V117.632H456.82V151.964H474.591V160.349H446.495Z" fill="white"/>
<path d="M488.967 160.891C486.923 160.891 485.108 160.55 483.523 159.869C481.952 159.174 480.707 158.131 479.789 156.74C478.886 155.336 478.434 153.577 478.434 151.463C478.434 149.684 478.747 148.182 479.372 146.958C479.998 145.734 480.86 144.74 481.959 143.975C483.057 143.211 484.323 142.634 485.755 142.244C487.187 141.841 488.717 141.57 490.344 141.431C492.165 141.264 493.632 141.09 494.745 140.909C495.857 140.715 496.664 140.443 497.164 140.096C497.679 139.734 497.936 139.227 497.936 138.573V138.469C497.936 137.398 497.567 136.571 496.83 135.987C496.093 135.403 495.099 135.111 493.848 135.111C492.499 135.111 491.414 135.403 490.594 135.987C489.773 136.571 489.252 137.377 489.03 138.406L479.623 138.073C479.901 136.126 480.617 134.388 481.771 132.858C482.939 131.315 484.538 130.105 486.568 129.229C488.612 128.339 491.067 127.894 493.931 127.894C495.975 127.894 497.859 128.137 499.584 128.624C501.308 129.097 502.81 129.792 504.089 130.71C505.368 131.614 506.355 132.726 507.051 134.047C507.76 135.368 508.114 136.877 508.114 138.573V160.349H498.52V155.885H498.27C497.699 156.97 496.969 157.888 496.079 158.638C495.203 159.389 494.168 159.953 492.972 160.328C491.79 160.703 490.455 160.891 488.967 160.891ZM492.116 154.217C493.215 154.217 494.202 153.994 495.078 153.549C495.968 153.104 496.677 152.492 497.206 151.714C497.734 150.921 497.998 150.003 497.998 148.96V145.915C497.706 146.068 497.352 146.207 496.935 146.332C496.531 146.457 496.086 146.576 495.6 146.687C495.113 146.798 494.612 146.895 494.098 146.979C493.583 147.062 493.09 147.139 492.617 147.208C491.658 147.361 490.837 147.598 490.156 147.918C489.488 148.237 488.974 148.655 488.612 149.169C488.265 149.67 488.091 150.268 488.091 150.963C488.091 152.02 488.466 152.826 489.217 153.382C489.982 153.939 490.948 154.217 492.116 154.217Z" fill="white"/>
<path d="M514.351 160.349V117.632H524.55V133.797H524.759C525.176 132.823 525.767 131.885 526.532 130.981C527.311 130.077 528.298 129.34 529.494 128.77C530.704 128.186 532.15 127.894 533.832 127.894C536.057 127.894 538.136 128.478 540.069 129.646C542.016 130.814 543.587 132.615 544.783 135.048C545.979 137.482 546.576 140.583 546.576 144.351C546.576 147.98 545.999 151.018 544.845 153.466C543.705 155.913 542.162 157.749 540.215 158.972C538.282 160.196 536.134 160.808 533.77 160.808C532.157 160.808 530.759 160.544 529.577 160.015C528.395 159.487 527.401 158.791 526.595 157.929C525.802 157.067 525.19 156.142 524.759 155.155H524.446V160.349H514.351ZM524.342 144.33C524.342 146.054 524.571 147.556 525.03 148.835C525.503 150.115 526.177 151.109 527.053 151.818C527.943 152.513 529.007 152.861 530.245 152.861C531.496 152.861 532.56 152.513 533.436 151.818C534.312 151.109 534.972 150.115 535.417 148.835C535.876 147.556 536.106 146.054 536.106 144.33C536.106 142.606 535.876 141.111 535.417 139.846C534.972 138.58 534.312 137.6 533.436 136.905C532.574 136.209 531.51 135.862 530.245 135.862C528.993 135.862 527.929 136.202 527.053 136.884C526.177 137.565 525.503 138.538 525.03 139.804C524.571 141.069 524.342 142.578 524.342 144.33Z" fill="white"/>
<path d="M257.156 138.99C257.156 143.69 256.252 147.674 254.445 150.942C252.637 154.21 250.19 156.692 247.103 158.388C244.03 160.085 240.581 160.933 236.757 160.933C232.919 160.933 229.464 160.078 226.391 158.367C223.318 156.657 220.878 154.175 219.07 150.921C217.276 147.653 216.379 143.676 216.379 138.99C216.379 134.29 217.276 130.307 219.07 127.039C220.878 123.771 223.318 121.289 226.391 119.593C229.464 117.896 232.919 117.048 236.757 117.048C240.581 117.048 244.03 117.896 247.103 119.593C250.19 121.289 252.637 123.771 254.445 127.039C256.252 130.307 257.156 134.29 257.156 138.99ZM246.602 138.99C246.602 136.209 246.206 133.859 245.413 131.94C244.635 130.021 243.508 128.568 242.034 127.581C240.574 126.594 238.815 126.1 236.757 126.1C234.713 126.1 232.954 126.594 231.48 127.581C230.006 128.568 228.873 130.021 228.08 131.94C227.302 133.859 226.912 136.209 226.912 138.99C226.912 141.771 227.302 144.121 228.08 146.04C228.873 147.959 230.006 149.412 231.48 150.4C232.954 151.387 234.713 151.881 236.757 151.881C238.815 151.881 240.574 151.387 242.034 150.4C243.508 149.412 244.635 147.959 245.413 146.04C246.206 144.121 246.602 141.771 246.602 138.99Z" fill="white"/>
<path d="M263.184 160.349V128.311H272.883V134.193H273.238C273.905 132.246 275.032 130.71 276.617 129.583C278.202 128.457 280.093 127.894 282.29 127.894C284.515 127.894 286.42 128.464 288.005 129.604C289.59 130.745 290.598 132.274 291.03 134.193H291.363C291.961 132.288 293.129 130.765 294.867 129.625C296.606 128.471 298.657 127.894 301.02 127.894C304.052 127.894 306.513 128.867 308.404 130.814C310.295 132.747 311.241 135.403 311.241 138.782V160.349H301.041V141.118C301.041 139.519 300.631 138.302 299.811 137.468C298.99 136.62 297.927 136.195 296.619 136.195C295.215 136.195 294.11 136.654 293.303 137.572C292.51 138.476 292.114 139.693 292.114 141.222V160.349H282.311V141.014C282.311 139.526 281.908 138.351 281.101 137.489C280.295 136.626 279.231 136.195 277.91 136.195C277.02 136.195 276.234 136.411 275.553 136.842C274.872 137.259 274.336 137.857 273.947 138.636C273.571 139.414 273.384 140.332 273.384 141.389V160.349H263.184Z" fill="white"/>
<path d="M332.537 160.954C329.186 160.954 326.293 160.293 323.86 158.972C321.44 157.637 319.577 155.739 318.27 153.278C316.977 150.803 316.33 147.862 316.33 144.455C316.33 141.146 316.984 138.253 318.291 135.778C319.598 133.289 321.44 131.356 323.818 129.98C326.196 128.589 328.998 127.894 332.224 127.894C334.504 127.894 336.59 128.249 338.481 128.958C340.372 129.667 342.006 130.717 343.383 132.107C344.759 133.498 345.83 135.215 346.595 137.259C347.36 139.289 347.742 141.618 347.742 144.247V146.791H319.897V140.868H338.252C338.238 139.783 337.981 138.817 337.48 137.968C336.979 137.12 336.291 136.46 335.415 135.987C334.553 135.5 333.559 135.257 332.432 135.257C331.292 135.257 330.27 135.514 329.366 136.029C328.463 136.529 327.746 137.217 327.218 138.093C326.69 138.956 326.411 139.936 326.384 141.034V147.062C326.384 148.369 326.641 149.517 327.155 150.504C327.67 151.477 328.4 152.235 329.345 152.777C330.291 153.32 331.417 153.591 332.724 153.591C333.628 153.591 334.449 153.466 335.186 153.215C335.923 152.965 336.555 152.597 337.084 152.11C337.612 151.623 338.008 151.025 338.273 150.316L347.638 150.587C347.249 152.687 346.393 154.516 345.072 156.073C343.765 157.616 342.048 158.819 339.92 159.681C337.793 160.53 335.332 160.954 332.537 160.954Z" fill="white"/>
<path d="M367.886 173.03C364.84 173.03 362.233 172.606 360.064 171.758C357.895 170.91 356.191 169.749 354.954 168.275C353.716 166.801 352.972 165.132 352.722 163.269L362.379 162.727C362.56 163.38 362.894 163.95 363.38 164.437C363.881 164.924 364.528 165.299 365.32 165.563C366.127 165.828 367.072 165.96 368.157 165.96C369.867 165.96 371.279 165.542 372.391 164.708C373.517 163.888 374.08 162.449 374.08 160.391V154.759H373.726C373.323 155.746 372.711 156.629 371.89 157.408C371.07 158.187 370.048 158.798 368.824 159.243C367.615 159.688 366.224 159.911 364.653 159.911C362.317 159.911 360.175 159.369 358.228 158.284C356.296 157.185 354.745 155.489 353.577 153.195C352.423 150.886 351.846 147.918 351.846 144.288C351.846 140.548 352.444 137.468 353.64 135.048C354.836 132.615 356.4 130.814 358.333 129.646C360.279 128.478 362.372 127.894 364.611 127.894C366.294 127.894 367.733 128.186 368.929 128.77C370.138 129.34 371.133 130.077 371.911 130.981C372.69 131.885 373.281 132.823 373.684 133.797H373.976V128.311H384.134V160.474C384.134 163.186 383.453 165.473 382.09 167.336C380.727 169.2 378.822 170.611 376.375 171.57C373.928 172.544 371.098 173.03 367.886 173.03ZM368.199 152.485C369.436 152.485 370.493 152.159 371.369 151.505C372.245 150.852 372.919 149.913 373.392 148.689C373.865 147.466 374.101 145.999 374.101 144.288C374.101 142.55 373.865 141.055 373.392 139.804C372.933 138.538 372.259 137.565 371.369 136.884C370.493 136.202 369.436 135.862 368.199 135.862C366.933 135.862 365.862 136.209 364.986 136.905C364.11 137.6 363.443 138.58 362.984 139.846C362.539 141.097 362.317 142.578 362.317 144.288C362.317 145.999 362.546 147.466 363.005 148.689C363.464 149.913 364.124 150.852 364.986 151.505C365.862 152.159 366.933 152.485 368.199 152.485Z" fill="white"/>
<path d="M399.668 160.891C397.624 160.891 395.809 160.55 394.224 159.869C392.653 159.174 391.408 158.131 390.49 156.74C389.587 155.336 389.135 153.577 389.135 151.463C389.135 149.684 389.448 148.182 390.073 146.958C390.699 145.734 391.561 144.74 392.66 143.975C393.758 143.211 395.024 142.634 396.456 142.244C397.888 141.841 399.418 141.57 401.045 141.431C402.866 141.264 404.333 141.09 405.446 140.909C406.558 140.715 407.364 140.443 407.865 140.096C408.38 139.734 408.637 139.227 408.637 138.573V138.469C408.637 137.398 408.268 136.571 407.531 135.987C406.794 135.403 405.8 135.111 404.549 135.111C403.2 135.111 402.115 135.403 401.295 135.987C400.474 136.571 399.953 137.377 399.73 138.406L390.324 138.073C390.602 136.126 391.318 134.388 392.472 132.858C393.64 131.315 395.239 130.105 397.269 129.229C399.313 128.339 401.768 127.894 404.632 127.894C406.676 127.894 408.56 128.137 410.285 128.624C412.009 129.097 413.511 129.792 414.79 130.71C416.069 131.614 417.056 132.726 417.752 134.047C418.461 135.368 418.815 136.877 418.815 138.573V160.349H409.221V155.885H408.97C408.4 156.97 407.67 157.888 406.78 158.639C405.904 159.389 404.868 159.953 403.673 160.328C402.491 160.703 401.156 160.891 399.668 160.891ZM402.817 154.217C403.916 154.217 404.903 153.994 405.779 153.549C406.669 153.104 407.378 152.492 407.907 151.714C408.435 150.921 408.699 150.003 408.699 148.96V145.915C408.407 146.068 408.053 146.207 407.636 146.332C407.232 146.458 406.787 146.576 406.301 146.687C405.814 146.798 405.313 146.896 404.799 146.979C404.284 147.062 403.791 147.139 403.318 147.208C402.359 147.361 401.538 147.598 400.857 147.918C400.189 148.237 399.675 148.655 399.313 149.169C398.966 149.67 398.792 150.268 398.792 150.963C398.792 152.02 399.167 152.826 399.918 153.382C400.683 153.939 401.649 154.217 402.817 154.217Z" fill="white"/>
<path d="M145.896 115.293C133.505 115.293 127.31 122.257 127.31 136.185C127.31 148.588 132.038 158.958 141.494 167.295V177.055L140.679 177.512L136.114 177.36H116.061L103.997 177.817L103.182 176.75L104.975 164.855L116.224 165.77H123.724L123.887 165.312C114.648 156.671 110.029 146.707 110.029 135.422C110.029 129.221 111.442 123.68 114.268 118.8C117.094 113.818 121.278 109.904 126.821 107.058C132.364 104.211 138.994 102.788 146.711 102.788C154.428 102.788 160.949 104.16 166.275 106.905C176.817 112.395 182.089 121.24 182.089 133.44C182.089 145.538 177.415 156.162 168.068 165.312L168.394 165.77H177.85L188.121 164.702L188.936 165.77L187.143 177.97L173.122 177.36H155.841L151.276 177.512L150.461 177.055V167.295C160.025 159.365 164.807 149.198 164.807 136.795C164.807 130.085 163.231 124.849 160.079 121.088C157.036 117.224 152.308 115.293 145.896 115.293Z" fill="white"/>
<path d="M69.7023 210.274H585.403V224.958H69.7023V210.274Z" fill="url(#paint1_linear_1_19)"/>
<defs>
<linearGradient id="paint0_linear_1_19" x1="69.7023" y1="141.845" x2="585.403" y2="141.845" gradientUnits="userSpaceOnUse">
<stop stop-color="#FF0CE7"/>
<stop offset="0.510417" stop-color="#FF3294"/>
<stop offset="1" stop-color="#FF3A3A"/>
</linearGradient>
<linearGradient id="paint1_linear_1_19" x1="585.403" y1="217.616" x2="69.7023" y2="217.616" gradientUnits="userSpaceOnUse">
<stop stop-color="#DFF5FF"/>
<stop offset="0.546875" stop-color="#00FFE0"/>
<stop offset="1" stop-color="#3961ED"/>
</linearGradient>
</defs>
</svg>
