<svg width="649" height="690" viewBox="0 0 649 690" fill="none" xmlns="http://www.w3.org/2000/svg">
<path d="M503.902 385.621C503.902 519.882 700.19 655.264 450.731 655.264C353.103 655.264 31.9309 604.109 121.642 489.376C300.644 260.452 353.103 42.0835 450.731 42.0835C548.359 42.0835 503.902 251.361 503.902 385.621Z" fill="white"/>
<path d="M392.375 71.3401C429.458 27.9077 476.024 12.2426 509.757 4.98506C561.891 -6.23133 648.051 4.98506 648.051 4.98506V655.264H445.071C445.071 655.264 355.292 114.772 392.375 71.3401Z" fill="white"/>
<path d="M323.324 501.576C308.662 549.635 277.659 596.565 238.04 631.479C198.41 666.401 150.22 689.25 101.207 689.25C57.3407 689.25 27.103 657.253 11.9441 612.702C-3.21271 568.156 -3.20196 511.253 13.3472 461.949C44.7816 368.298 127.416 305.765 217.791 299.75C261.745 299.76 293.568 325.407 311.707 363.485C329.856 401.585 334.27 452.089 323.324 501.576Z" stroke="black" stroke-width="1.5"/>
<path d="M293.154 515.054C280.541 556.33 253.872 596.641 219.79 626.631C185.697 656.629 144.248 676.25 102.099 676.25C64.4101 676.25 38.4161 648.802 25.378 610.54C12.3419 572.284 12.3504 523.409 26.5857 481.061C53.6246 400.625 124.703 346.918 202.435 341.75C240.212 341.76 267.566 363.768 283.162 396.46C298.769 429.175 302.568 472.548 293.154 515.054Z" stroke="black" stroke-width="1.5"/>
<path d="M231.028 541.307C223.048 567.665 206.176 593.413 184.612 612.569C163.039 631.735 136.83 644.25 110.204 644.25C86.4859 644.25 70.0838 626.818 61.8383 602.389C53.5955 577.967 53.5989 546.752 62.6041 519.707C79.7076 468.338 124.661 434.053 173.806 430.75C197.612 430.76 214.863 444.756 224.713 465.601C234.574 486.47 236.982 514.158 231.028 541.307Z" stroke="black" stroke-width="1.5"/>
</svg>
