<svg width="626" height="626" viewBox="0 0 626 626" fill="none" xmlns="http://www.w3.org/2000/svg">
<path d="M0.729248 313C0.729248 140.538 140.538 0.729187 313 0.729187C485.462 0.729187 625.271 140.538 625.271 313C625.271 485.462 485.462 625.271 313 625.271C140.538 625.271 0.729248 485.462 0.729248 313Z" fill="#00030A"/>
<g filter="url(#filter0_d_5_35)">
<path d="M334.256 167.216C336.43 167.216 338.241 167.216 340.052 167.578C341.864 167.941 344.4 169.39 345.849 169.752H359.252C359.735 169.148 360.919 168.013 361.788 168.303C362.875 168.665 377.003 172.65 377.003 173.375C377.003 174.099 381.35 176.273 381.713 176.635C382.075 176.997 386.06 178.446 387.147 178.809C388.016 179.098 398.618 179.654 403.811 179.895L420.837 183.88C423.735 184.243 430.328 184.46 433.516 182.431C437.501 179.895 455.614 179.533 459.962 180.982C464.309 182.431 501.984 174.461 503.795 175.186C505.244 175.766 505.365 177.843 505.244 178.809C506.935 179.292 510.389 179.968 510.678 178.809C511.041 177.36 512.128 175.186 514.663 175.186C517.199 175.186 530.241 173.375 533.139 175.186C536.037 176.997 540.384 180.258 540.384 180.982C540.384 181.707 540.746 182.069 538.935 182.431C537.124 182.794 530.241 180.62 529.154 182.431C528.067 184.243 523.72 183.88 520.46 187.141C517.561 187.865 515.388 188.952 516.837 190.401C518.286 191.85 522.633 190.763 522.633 191.85C522.633 192.937 523.358 194.748 521.909 195.11C520.46 195.473 516.112 200.182 510.678 197.646C505.244 195.11 503.071 194.748 502.346 197.646C501.669 200.357 494.021 203.701 493.625 204.123C493.716 204.15 493.73 204.167 493.652 204.167C493.605 204.167 493.598 204.152 493.625 204.123C492.868 203.89 486.744 202.873 483.509 204.167C479.886 205.616 444.022 219.382 429.532 221.193C415.041 223.005 392.581 228.076 387.147 228.076C381.713 228.076 380.626 229.163 380.626 232.061C380.626 234.959 374.83 241.118 373.743 242.567C372.656 244.016 373.743 246.914 373.743 251.261C373.743 255.608 374.83 266.114 377.003 270.099C379.177 274.084 391.494 289.661 391.494 293.646V303.065C391.494 308.499 396.566 315.02 396.566 319.367C396.566 323.714 400.913 330.959 401.275 333.133C401.637 335.306 402.362 350.159 397.652 354.506C392.943 358.853 389.683 369.721 387.871 368.997C386.06 368.272 390.407 373.706 390.045 377.691C389.683 381.676 392.218 420.076 390.045 424.061C387.871 428.046 389.043 429.671 387.871 433.48C386.422 438.189 385.335 451.593 388.958 453.766C392.581 455.94 398.377 455.94 399.826 459.2C401.275 462.461 401.637 464.634 401.275 466.083C400.913 467.532 402.698 470.793 397.652 470.793C391.132 470.793 379.539 472.604 378.815 472.604C378.09 472.604 367.222 474.415 365.411 470.793C363.6 467.17 364.796 463.723 365.411 460.649C365.773 458.838 365.049 455.94 365.411 453.042C365.701 450.723 365.532 434.929 365.411 427.321C363.6 425.148 360.049 419.206 360.339 412.831C360.701 404.861 353.094 388.921 352.732 386.023C352.369 383.125 359.252 377.329 352.732 375.88C346.211 374.431 343.313 376.242 340.777 378.778C338.241 381.314 321.215 398.702 315.419 401.238C309.622 403.774 293.834 414.067 293.683 415.729C293.321 419.714 293.683 417.54 295.494 420.8C297.305 424.061 304.188 425.51 306 427.321C307.811 429.132 310.709 432.031 311.796 433.48C312.883 434.929 317.23 431.668 320.49 435.291C323.751 438.914 337.626 443.004 339.328 443.623C343.313 445.072 351.285 447.63 351.645 450.506C352.732 459.2 346.573 504.845 341.139 517.525C340.11 519.926 332.083 528.03 327.011 526.581C321.939 525.132 319.766 518.249 319.403 515.713C319.041 513.177 319.403 488.906 319.403 485.645C319.403 482.385 319.403 476.951 315.419 472.604C311.315 468.128 303.826 467.532 303.464 466.083C303.174 464.924 302.739 461.615 301.653 459.2C285.954 455.215 253.896 442.36 248.762 438.189C242.966 433.48 238.619 427.74 238.619 421.887C238.619 415.729 241.336 409.208 243.328 405.223C245.864 400.151 264.339 368.272 266.513 365.374C268.687 362.476 277.381 351.246 279.192 349.435C281.004 347.623 281.728 340.016 282.453 336.031C283.177 332.046 284.988 330.597 286.075 327.337C287.162 324.076 287.524 314.295 288.249 310.31C288.973 306.325 286.075 301.978 286.075 299.805C286.075 297.631 286.8 288.937 284.626 285.676C282.453 282.416 279.192 276.62 277.381 274.084C275.57 271.548 275.207 264.665 274.845 262.129C274.483 259.593 274.121 252.348 272.309 250.174C270.498 248.001 268.687 246.19 264.339 243.654C259.992 241.118 258.543 238.582 257.456 236.046C256.37 233.51 245.14 236.046 246.951 233.51C241.638 232.182 230.142 229.525 226.664 229.525C222.317 229.525 216.521 227.352 213.985 227.352C211.449 227.352 200.219 229.525 195.147 229.525C190.076 229.525 182.106 225.541 178.845 225.541H166.891C163.268 225.541 157.11 227.352 154.574 228.439C152.038 229.525 143.706 229.163 142.257 231.337C140.808 233.51 137.547 239.307 135.012 240.031C132.983 240.611 130.061 240.273 128.853 240.031C128.853 240.756 128.129 243.291 125.23 247.639C121.608 253.073 113.638 260.318 110.74 260.318C107.842 260.318 102.77 260.68 104.581 258.869C106.031 257.42 107.6 255.608 108.204 254.884C105.91 255.729 100.886 257.71 99.1475 258.869C97.4086 260.028 95.0418 259.352 94.0758 258.869C97.2154 255.729 103.712 249.377 104.581 249.088C105.451 248.798 104.944 248.001 104.581 247.639C101.321 249.812 94.6554 254.304 94.0758 254.884C93.3513 255.608 91.1777 256.333 90.8154 254.884C90.4532 253.435 90.8154 251.986 91.9022 250.537C92.989 249.088 99.1475 245.103 100.234 244.378C101.104 243.799 101.563 242.205 101.683 241.48C101.2 241.48 99.872 241.625 98.423 242.205C96.6116 242.929 90.0909 249.088 87.9173 249.088C85.7438 249.088 84.657 247.276 85.3815 246.552C86.106 245.827 96.6116 237.133 99.1475 237.133C101.683 237.133 101.321 235.322 100.234 234.959C99.1475 234.597 99.8719 234.235 96.9739 233.873C94.0758 233.51 95.8871 234.959 91.9022 234.959C87.9173 234.959 88.2796 233.51 89.0041 232.424C89.7286 231.337 92.6267 230.975 94.8003 230.25C96.9739 229.525 105.306 229.163 106.03 227.352C106.755 225.541 115.087 223.005 115.449 221.918C115.812 220.831 113.276 219.02 115.449 216.846C117.623 214.673 126.679 213.224 127.766 212.861C128.853 212.499 142.981 204.529 145.517 203.08C148.053 201.631 148.778 200.182 153.125 200.544C157.472 200.907 163.268 194.748 165.079 194.386C166.891 194.024 166.891 198.733 171.6 194.386C176.309 190.039 173.411 188.59 180.657 188.227C187.902 187.865 196.234 188.227 198.77 189.314C201.306 190.401 206.015 192.212 208.551 191.488C211.087 190.763 211.449 188.227 213.985 188.227C216.521 188.227 231.736 186.416 234.996 188.227C238.256 190.039 254.921 187.503 257.456 186.416C259.992 185.329 269.773 183.518 272.309 180.258C274.845 176.997 277.743 172.65 281.728 173.375C285.713 174.099 287.887 173.375 291.509 173.375C295.132 173.375 299.841 171.926 300.566 170.839C301.29 169.752 302.015 166.854 301.29 165.767C300.566 164.68 299.479 163.231 295.494 158.884C291.509 154.537 292.596 152.726 292.958 151.277C293.32 149.828 284.626 140.046 285.713 136.424C286.8 132.801 284.264 120.122 287.162 117.948C290.188 115.679 292.596 113.964 296.943 111.79C299.659 110.432 304.913 110.341 304.913 105.631C304.913 101.556 304.555 100.107 304.216 99.7742C304.083 99.7942 303.953 99.8146 303.826 99.8353C303.934 99.6919 304.073 99.6336 304.216 99.7742C310.295 98.8616 322.774 98.7009 324.475 99.8353C326.649 101.284 331.358 105.631 331.358 107.081C331.358 108.53 334.981 111.428 334.981 112.514C334.981 113.601 335.705 113.239 337.154 116.137C338.199 118.227 338.603 119.76 339.328 120.484C339.328 121.45 339.73 124.024 340.052 124.831C340.777 126.643 342.588 131.714 342.951 133.163C343.313 134.613 344.521 140.954 345.124 141.858C345.849 142.945 346.573 146.929 346.573 148.741V156.711C346.573 158.522 345.849 160.333 344.037 160.695C342.588 160.985 339.569 161.541 338.241 161.42C336.068 161.42 335.85 161.927 334.981 162.507C334.111 163.086 333.894 166.009 334.256 167.216Z" fill="#00030A"/>
</g>
<defs>
<filter id="filter0_d_5_35" x="52.158" y="66.0367" width="521.256" height="493.717" filterUnits="userSpaceOnUse" color-interpolation-filters="sRGB">
<feFlood flood-opacity="0" result="BackgroundImageFix"/>
<feColorMatrix in="SourceAlpha" type="matrix" values="0 0 0 0 0 0 0 0 0 0 0 0 0 0 0 0 0 0 127 0" result="hardAlpha"/>
<feOffset/>
<feGaussianBlur stdDeviation="16.5"/>
<feColorMatrix type="matrix" values="0 0 0 0 1 0 0 0 0 1 0 0 0 0 1 0 0 0 1 0"/>
<feBlend mode="normal" in2="BackgroundImageFix" result="effect1_dropShadow_5_35"/>
<feBlend mode="normal" in="SourceGraphic" in2="effect1_dropShadow_5_35" result="shape"/>
</filter>
</defs>
</svg>
