<svg width="516" height="479" viewBox="0 0 516 479" fill="none" xmlns="http://www.w3.org/2000/svg">
<path d="M190.724 382.767C151.952 350.809 120.484 304.189 103.416 254.216C86.3449 204.229 83.7057 150.962 102.487 105.69C119.295 65.172 160.436 49.5029 207.396 52.5724C254.349 55.6416 306.905 77.456 346.105 111.635C420.563 176.555 446.658 276.844 417.584 362.625C400.733 403.22 364.848 422.787 322.727 424.95C280.58 427.115 232.239 411.84 190.724 382.767Z" stroke="black" stroke-width="1.5"/>
<path d="M198.479 329.792C167.557 304.281 142.465 267.054 128.866 227.141C115.263 187.214 113.184 144.675 128.183 108.521C141.587 76.2081 174.366 63.6769 211.829 66.1088C249.286 68.5402 291.214 85.9417 322.478 113.226C381.861 165.049 402.638 245.14 379.409 313.662C365.962 346.052 337.359 361.681 303.77 363.426C270.155 365.172 231.594 352.996 198.479 329.792Z" stroke="black" stroke-width="1.5"/>
<path d="M228.124 253.491C218.399 245.505 210.48 233.868 206.167 221.402C201.85 208.923 201.169 195.69 205.813 184.495C209.899 174.646 219.977 170.777 231.72 171.574C243.455 172.37 256.634 177.835 266.474 186.373C285.16 202.586 291.75 227.549 284.554 248.846C280.425 258.772 271.605 263.564 261.135 264.069C250.641 264.575 238.546 260.757 228.124 253.491Z" stroke="black" stroke-width="1.5"/>
<path d="M229.449 263.486C213.362 250.281 200.272 231.044 193.143 210.439C186.009 189.822 184.868 167.912 192.57 149.344C199.409 132.861 216.258 126.46 235.694 127.778C255.122 129.096 276.912 138.137 293.185 152.256C324.09 179.07 335.001 220.373 323.081 255.624C316.2 272.186 301.483 280.157 284.103 280.995C266.698 281.835 246.679 275.504 229.449 263.486Z" stroke="black" stroke-width="1.5"/>
<path d="M223.364 264.471C201.299 246.363 183.351 219.985 173.576 191.734C163.797 163.47 162.223 133.408 172.799 107.914C182.223 85.1971 205.435 76.4175 232.098 78.226C258.753 80.034 288.635 92.4344 310.95 111.797C353.335 148.572 368.306 205.225 351.948 253.588C342.481 276.382 322.224 287.341 298.352 288.493C274.455 289.645 246.99 280.953 223.364 264.471Z" stroke="black" stroke-width="1.5"/>
</svg>
